# xmcd
# Track frame offsets:
# 150
# 15012
# 34111
#
# Disc length: 711 seconds
# Revision: 0
# Processed by: cddbd v1.5.2PL0 Copyright (c) Steve Scherf et al.
# Submitted via: VisiTrax 2.11.1.266 - For more info visit www.synapsa.com
#
DISCID=1102c503
DTITLE=Cheers, Steve - Sounds of Then
DYEAR=1900
DGENRE=Counrty
TTITLE0=Sounds of Then
TTITLE1=Again
TTITLE2=Wrong that Night
EXTD=
EXTT0=
EXTT1=
EXTT2=
PLAYORDER=
